<?xml version="1.0" encoding="utf-8"?>
<!-- Generator: Adobe Illustrator 20.0.0, SVG Export Plug-In . SVG Version: 6.00 Build 0)  -->
<svg version="1.1" id="Layer_1" xmlns="http://www.w3.org/2000/svg" xmlns:xlink="http://www.w3.org/1999/xlink" x="0px" y="0px"
	 viewBox="0 0 442.5 100.1" style="enable-background:new 0 0 442.5 100.1;" xml:space="preserve">
<style type="text/css">
	.st0{fill:#EB4824;}
	.st1{fill:#5F5E63;}
</style>
<g>
	<path class="st0" d="M0,19.7h11.8l16.4,45.3L46,19.7h11.8L25,100.1H13.5l8.5-21.4L0,19.7z"/>
	<path class="st0" d="M60.6,50.1c0-4.3,0.7-8.3,2.2-12.1c1.5-3.7,3.6-7.1,6.4-10.1c3.1-3.3,6.5-5.8,10.3-7.6
		c3.8-1.8,7.8-2.7,11.9-2.7c4.4,0,8.5,0.8,12.3,2.4c3.8,1.6,7.2,3.9,10.3,7c3,3.1,5.3,6.5,6.9,10.3c1.6,3.8,2.4,7.8,2.4,11.9
		c0,4.2-0.7,8.2-2.2,12.2c-1.5,3.9-3.6,7.4-6.3,10.3c-3.1,3.4-6.6,6-10.4,7.7c-3.8,1.7-7.9,2.6-12.3,2.6c-4.5,0-8.6-0.8-12.3-2.4
		c-3.8-1.6-7.1-4-10.1-7.1c-2.8-3-5.1-6.5-6.7-10.4C61.4,58.3,60.6,54.2,60.6,50.1z M71.9,50c0,6.1,1.9,11.1,5.8,15.2
		c3.8,4.1,8.6,6.1,14.4,6.1c5.6,0,10.4-2,14.2-6.1c3.8-4.1,5.7-9.2,5.7-15.3c0-6.2-1.9-11.2-5.7-15.3c-3.8-4-8.6-6-14.3-6
		c-5.7,0-10.4,2-14.3,6.1C73.8,38.8,71.9,43.9,71.9,50z"/>
	<path class="st0" d="M183.4,80.5h-10.5v-6.8c-2.2,2.8-4.6,4.8-7.3,6.2c-2.7,1.3-5.7,2-9.1,2c-7.7,0-13.6-2.4-17.8-7.1
		c-4.2-4.8-6.3-11.4-6.3-20.1v-35h10.9v31.8c0,6.6,1.2,11.5,3.5,14.8c2.3,3.3,5.8,4.9,10.4,4.9c2.9,0,5.4-0.7,7.7-2
		c2.2-1.3,4-3.3,5.4-5.8c0.8-1.5,1.4-3.4,1.7-5.5c0.3-2.1,0.5-5.6,0.5-10.3V19.7h10.8V80.5z"/>
	<path class="st0" d="M207.7,80.5h-10.9V19.7H207v7c1.8-2.7,3.9-4.7,6.2-6c2.3-1.3,5.1-2,8.2-2v11.4c-4.9,0.4-8.4,1.8-10.5,4.3
		c-2.1,2.5-3.2,6.6-3.2,12.2V80.5z"/>
	<path class="st1" d="M287,59.7c-2.5,7.3-6.3,12.9-11.3,16.7c-5,3.8-11.1,5.7-18.3,5.7c-4.5,0-8.6-0.8-12.3-2.3c-3.7-1.6-7-3.9-10-7
		c-2.8-3-5.1-6.5-6.7-10.4c-1.6-4-2.4-8-2.4-12.1c0-4.2,0.7-8.2,2.2-11.9c1.5-3.7,3.6-7.1,6.4-10.1c3.1-3.4,6.7-5.9,10.6-7.6
		c3.9-1.7,8.1-2.6,12.5-2.6c7,0,13,1.9,18.1,5.8c5.1,3.9,8.8,9.3,11.2,16.2h-12c-1.9-3.7-4.4-6.5-7.4-8.3c-3-1.8-6.6-2.8-10.8-2.8
		c-5.4,0-10,2-13.8,6.1c-3.8,4.1-5.7,9.1-5.7,15.1c0,6.1,1.9,11.1,5.7,15.2c3.8,4.1,8.6,6.1,14.3,6.1c3.8,0,7.3-1,10.4-3
		c3.1-2,5.5-4.9,7.2-8.5H287z"/>
	<path class="st1" d="M294.4,50.1c0-4.3,0.7-8.3,2.2-12.1c1.5-3.7,3.6-7.1,6.4-10.1c3.1-3.3,6.5-5.8,10.3-7.6
		c3.8-1.8,7.8-2.7,11.9-2.7c4.4,0,8.5,0.8,12.3,2.4c3.8,1.6,7.2,3.9,10.3,7c3,3.1,5.3,6.5,6.9,10.3c1.6,3.8,2.4,7.8,2.4,11.9
		c0,4.2-0.7,8.2-2.2,12.2c-1.5,3.9-3.6,7.4-6.3,10.3c-3.1,3.4-6.6,6-10.4,7.7c-3.9,1.7-7.9,2.6-12.3,2.6c-4.5,0-8.6-0.8-12.3-2.4
		c-3.8-1.6-7.1-4-10.1-7.1c-2.8-3-5.1-6.5-6.7-10.4C295.2,58.3,294.4,54.2,294.4,50.1z M305.7,50c0,6.1,1.9,11.1,5.8,15.2
		c3.8,4.1,8.6,6.1,14.4,6.1c5.6,0,10.4-2,14.2-6.1c3.8-4.1,5.7-9.2,5.7-15.3c0-6.2-1.9-11.2-5.7-15.3c-3.8-4-8.6-6-14.3-6
		c-5.7,0-10.4,2-14.3,6.1C307.6,38.8,305.7,43.9,305.7,50z"/>
	<path class="st1" d="M377.3,12.5h-10.8V0h10.8V12.5z M366.5,80.5V19.7h10.8v60.8H366.5z"/>
	<path class="st1" d="M401.3,80.5h-10.9V19.7h10.5v6.9c2.3-2.7,4.8-4.7,7.5-6c2.7-1.3,5.9-1.9,9.4-1.9c8,0,14.1,2.3,18.3,7
		c4.3,4.7,6.4,11.4,6.4,20.1v34.6h-11V48.2c0-6.4-1.2-11.2-3.6-14.3c-2.4-3.1-6.1-4.7-11.1-4.7c-5.5,0-9.4,1.8-11.9,5.5
		c-2.4,3.7-3.7,9.7-3.7,18.2V80.5z"/>
</g>
</svg>
